REM DIRINDEX 1\2\4\8,1\2\4\9,1\2\4\10,1\2\5\11,1\2\5\12,1\2\5\13,1\2\5\14,1\2\5\15,1\3\6\16,1\3\6\17,1\3\6\18,1\3\7\19,1\3\7\20,1\3\7\21,1\3\7\22,1\3\7\23
REM DIRNAME "folder01","folder02","folder03","folder04","folder05","folder06","folder07","folder08","folder09","folder10","folder11","folder12","folder13","folder14","folder15","folder16","folder17","folder18","folder19","folder20","folder21","folder22","folder23"
TITLE ""
FILE "LR_black_phrase_E_07.mp3" MP3
  TRACK 01 AUDIO
    TITLE "0:"
    INDEX 01 00:00:00
  TRACK 02 AUDIO
    TITLE "8:cjc171_01801"
    INDEX 01 00:00:16
  TRACK 03 AUDIO
    TITLE "0:"
    INDEX 01 00:01:45
  TRACK 04 AUDIO
    TITLE "9:cjc171_01802"
    INDEX 01 00:01:74
  TRACK 05 AUDIO
    TITLE "0:"
    INDEX 01 00:04:22
  TRACK 06 AUDIO
    TITLE "10:cjc171_01803"
    INDEX 01 00:05:02
  TRACK 07 AUDIO
    TITLE "0:"
    INDEX 01 00:07:26
  TRACK 08 AUDIO
    TITLE "8:cjc171_01804"
    INDEX 01 00:08:29
  TRACK 09 AUDIO
    TITLE "0:"
    INDEX 01 00:09:56
  TRACK 10 AUDIO
    TITLE "9:cjc171_01805"
    INDEX 01 00:10:11
  TRACK 11 AUDIO
    TITLE "0:"
    INDEX 01 00:12:53
  TRACK 12 AUDIO
    TITLE "10:cjc171_01806"
    INDEX 01 00:13:33
  TRACK 13 AUDIO
    TITLE "0:"
    INDEX 01 00:16:00
  TRACK 14 AUDIO
    TITLE "8:cjc171_01807"
    INDEX 01 00:17:05
  TRACK 15 AUDIO
    TITLE "0:"
    INDEX 01 00:18:47
  TRACK 16 AUDIO
    TITLE "9:cjc171_01808"
    INDEX 01 00:19:02
  TRACK 17 AUDIO
    TITLE "0:"
    INDEX 01 00:21:18
  TRACK 18 AUDIO
    TITLE "10:cjc171_01809"
    INDEX 01 00:21:71
  TRACK 19 AUDIO
    TITLE "0:"
    INDEX 01 00:24:13
  TRACK 20 AUDIO
    TITLE "8:cjc171_01810"
    INDEX 01 00:25:18
  TRACK 21 AUDIO
    TITLE "0:"
    INDEX 01 00:26:45
  TRACK 22 AUDIO
    TITLE "9:cjc171_01811"
    INDEX 01 00:27:01
  TRACK 23 AUDIO
    TITLE "0:"
    INDEX 01 00:29:61
  TRACK 24 AUDIO
    TITLE "10:cjc171_01812"
    INDEX 01 00:30:41
  TRACK 25 AUDIO
    TITLE "0:"
    INDEX 01 00:33:25
  TRACK 26 AUDIO
    TITLE "8:cjc171_01813"
    INDEX 01 00:34:31
  TRACK 27 AUDIO
    TITLE "0:"
    INDEX 01 00:35:28
  TRACK 28 AUDIO
    TITLE "9:cjc171_01814"
    INDEX 01 00:35:60
  TRACK 29 AUDIO
    TITLE "0:"
    INDEX 01 00:38:03
  TRACK 30 AUDIO
    TITLE "10:cjc171_01815"
    INDEX 01 00:38:58
  TRACK 31 AUDIO
    TITLE "0:"
    INDEX 01 00:41:03
  TRACK 32 AUDIO
    TITLE "8:cjc171_01816"
    INDEX 01 00:42:07
  TRACK 33 AUDIO
    TITLE "0:"
    INDEX 01 00:43:40
  TRACK 34 AUDIO
    TITLE "9:cjc171_01817"
    INDEX 01 00:43:67
  TRACK 35 AUDIO
    TITLE "0:"
    INDEX 01 00:46:24
  TRACK 36 AUDIO
    TITLE "10:cjc171_01818"
    INDEX 01 00:47:06
  TRACK 37 AUDIO
    TITLE "0:"
    INDEX 01 00:49:36
  TRACK 38 AUDIO
    TITLE "8:cjc171_01819"
    INDEX 01 00:50:42
  TRACK 39 AUDIO
    TITLE "0:"
    INDEX 01 00:52:05
  TRACK 40 AUDIO
    TITLE "9:cjc171_01820"
    INDEX 01 00:52:36
  TRACK 41 AUDIO
    TITLE "0:"
    INDEX 01 00:54:43
  TRACK 42 AUDIO
    TITLE "10:cjc171_01821"
    INDEX 01 00:55:25
  TRACK 43 AUDIO
    TITLE "0:"
    INDEX 01 00:57:34
  TRACK 44 AUDIO
    TITLE "8:cjc171_01822"
    INDEX 01 00:58:41
  TRACK 45 AUDIO
    TITLE "0:"
    INDEX 01 00:59:58
  TRACK 46 AUDIO
    TITLE "9:cjc171_01823"
    INDEX 01 01:00:12
  TRACK 47 AUDIO
    TITLE "0:"
    INDEX 01 01:02:04
  TRACK 48 AUDIO
    TITLE "10:cjc171_01824"
    INDEX 01 01:02:54
  TRACK 49 AUDIO
    TITLE "0:"
    INDEX 01 01:04:46
  TRACK 50 AUDIO
    TITLE "8:cjc171_01825"
    INDEX 01 01:05:47
  TRACK 51 AUDIO
    TITLE "0:"
    INDEX 01 01:07:11
  TRACK 52 AUDIO
    TITLE "9:cjc171_01826"
    INDEX 01 01:07:40
  TRACK 53 AUDIO
    TITLE "0:"
    INDEX 01 01:10:36
  TRACK 54 AUDIO
    TITLE "10:cjc171_01827"
    INDEX 01 01:11:14
  TRACK 55 AUDIO
    TITLE "0:"
    INDEX 01 01:14:11
  TRACK 56 AUDIO
    TITLE "8:cjc171_01828"
    INDEX 01 01:15:14
  TRACK 57 AUDIO
    TITLE "0:"
    INDEX 01 01:16:41
  TRACK 58 AUDIO
    TITLE "9:cjc171_01829"
    INDEX 01 01:16:70
  TRACK 59 AUDIO
    TITLE "0:"
    INDEX 01 01:19:06
  TRACK 60 AUDIO
    TITLE "10:cjc171_01830"
    INDEX 01 01:19:59
  TRACK 61 AUDIO
    TITLE "0:"
    INDEX 01 01:21:70
  TRACK 62 AUDIO
    TITLE "8:cjc171_01831"
    INDEX 01 01:22:69
  TRACK 63 AUDIO
    TITLE "0:"
    INDEX 01 01:24:15
  TRACK 64 AUDIO
    TITLE "9:cjc171_01832"
    INDEX 01 01:24:37
  TRACK 65 AUDIO
    TITLE "0:"
    INDEX 01 01:27:11
  TRACK 66 AUDIO
    TITLE "10:cjc171_01833"
    INDEX 01 01:27:56
  TRACK 67 AUDIO
    TITLE "0:"
    INDEX 01 01:30:33
  TRACK 68 AUDIO
    TITLE "8:cjc171_01834"
    INDEX 01 01:31:31
  TRACK 69 AUDIO
    TITLE "0:"
    INDEX 01 01:32:44
  TRACK 70 AUDIO
    TITLE "9:cjc171_01835"
    INDEX 01 01:32:65
  TRACK 71 AUDIO
    TITLE "0:"
    INDEX 01 01:35:40
  TRACK 72 AUDIO
    TITLE "10:cjc171_01836"
    INDEX 01 01:36:10
  TRACK 73 AUDIO
    TITLE "0:"
    INDEX 01 01:38:60
  TRACK 74 AUDIO
    TITLE "8:cjc171_01837"
    INDEX 01 01:39:54
  TRACK 75 AUDIO
    TITLE "0:"
    INDEX 01 01:41:15
  TRACK 76 AUDIO
    TITLE "9:cjc171_01838"
    INDEX 01 01:41:33
  TRACK 77 AUDIO
    TITLE "0:"
    INDEX 01 01:43:67
  TRACK 78 AUDIO
    TITLE "10:cjc171_01839"
    INDEX 01 01:44:37
  TRACK 79 AUDIO
    TITLE "0:"
    INDEX 01 01:46:73
  TRACK 80 AUDIO
    TITLE "8:cjc171_01840"
    INDEX 01 01:47:67
  TRACK 81 AUDIO
    TITLE "0:"
    INDEX 01 01:49:13
  TRACK 82 AUDIO
    TITLE "9:cjc171_01841"
    INDEX 01 01:49:33
  TRACK 83 AUDIO
    TITLE "0:"
    INDEX 01 01:51:55
  TRACK 84 AUDIO
    TITLE "10:cjc171_01842"
    INDEX 01 01:52:25
  TRACK 85 AUDIO
    TITLE "0:"
    INDEX 01 01:54:47
  TRACK 86 AUDIO
    TITLE "8:cjc171_01843"
    INDEX 01 01:55:43
  TRACK 87 AUDIO
    TITLE "0:"
    INDEX 01 01:56:50
  TRACK 88 AUDIO
    TITLE "9:cjc171_01844"
    INDEX 01 01:56:70
  TRACK 89 AUDIO
    TITLE "0:"
    INDEX 01 01:59:04
  TRACK 90 AUDIO
    TITLE "10:cjc171_01845"
    INDEX 01 01:59:45
  TRACK 91 AUDIO
    TITLE "0:"
    INDEX 01 02:01:51
  TRACK 92 AUDIO
    TITLE "8:cjc171_01846"
    INDEX 01 02:02:45
  TRACK 93 AUDIO
    TITLE "0:"
    INDEX 01 02:03:70
  TRACK 94 AUDIO
    TITLE "9:cjc171_01847"
    INDEX 01 02:04:14
  TRACK 95 AUDIO
    TITLE "0:"
    INDEX 01 02:06:15
  TRACK 96 AUDIO
    TITLE "10:cjc171_01848"
    INDEX 01 02:06:58
  TRACK 97 AUDIO
    TITLE "0:"
    INDEX 01 02:08:61
  TRACK 98 AUDIO
    TITLE "8:cjc171_01849"
    INDEX 01 02:09:55
  TRACK 99 AUDIO
    TITLE "0:"
    INDEX 01 02:10:72
  TRACK 100 AUDIO
    TITLE "9:cjc171_01850"
    INDEX 01 02:11:20
  TRACK 101 AUDIO
    TITLE "0:"
    INDEX 01 02:14:70
  TRACK 102 AUDIO
    TITLE "10:cjc171_01851"
    INDEX 01 02:15:46
  TRACK 103 AUDIO
    TITLE "0:"
    INDEX 01 02:19:18
  TRACK 104 AUDIO
    TITLE "8:cjc171_01852"
    INDEX 01 02:20:15
  TRACK 105 AUDIO
    TITLE "0:"
    INDEX 01 02:21:34
  TRACK 106 AUDIO
    TITLE "9:cjc171_01853"
    INDEX 01 02:21:54
  TRACK 107 AUDIO
    TITLE "0:"
    INDEX 01 02:23:39
  TRACK 108 AUDIO
    TITLE "10:cjc171_01854"
    INDEX 01 02:24:09
  TRACK 109 AUDIO
    TITLE "0:"
    INDEX 01 02:25:64
  TRACK 110 AUDIO
    TITLE "8:cjc171_01855"
    INDEX 01 02:26:69
  TRACK 111 AUDIO
    TITLE "0:"
    INDEX 01 02:28:33
  TRACK 112 AUDIO
    TITLE "9:cjc171_01856"
    INDEX 01 02:28:52
  TRACK 113 AUDIO
    TITLE "0:"
    INDEX 01 02:31:03
  TRACK 114 AUDIO
    TITLE "10:cjc171_01857"
    INDEX 01 02:31:51
  TRACK 115 AUDIO
    TITLE "0:"
    INDEX 01 02:34:00
  TRACK 116 AUDIO
    TITLE "8:cjc171_01858"
    INDEX 01 02:34:72
  TRACK 117 AUDIO
    TITLE "0:"
    INDEX 01 02:36:16
  TRACK 118 AUDIO
    TITLE "9:cjc171_01859"
    INDEX 01 02:36:38
  TRACK 119 AUDIO
    TITLE "0:"
    INDEX 01 02:38:66
  TRACK 120 AUDIO
    TITLE "10:cjc171_01860"
    INDEX 01 02:39:40
  TRACK 121 AUDIO
    TITLE "0:"
    INDEX 01 02:41:69
  TRACK 122 AUDIO
    TITLE "8:cjc171_01861"
    INDEX 01 02:42:72
  TRACK 123 AUDIO
    TITLE "0:"
    INDEX 01 02:44:04
  TRACK 124 AUDIO
    TITLE "9:cjc171_01862"
    INDEX 01 02:44:32
  TRACK 125 AUDIO
    TITLE "0:"
    INDEX 01 02:46:32
  TRACK 126 AUDIO
    TITLE "10:cjc171_01863"
    INDEX 01 02:47:10
  TRACK 127 AUDIO
    TITLE "0:"
    INDEX 01 02:49:09
  TRACK 128 AUDIO
    TITLE "8:cjc171_01864"
    INDEX 01 02:50:13
  TRACK 129 AUDIO
    TITLE "0:"
    INDEX 01 02:51:40
  TRACK 130 AUDIO
    TITLE "9:cjc171_01865"
    INDEX 01 02:51:67
  TRACK 131 AUDIO
    TITLE "0:"
    INDEX 01 02:53:74
  TRACK 132 AUDIO
    TITLE "10:cjc171_01866"
    INDEX 01 02:54:52
  TRACK 133 AUDIO
    TITLE "0:"
    INDEX 01 02:56:58
  TRACK 134 AUDIO
    TITLE "8:cjc171_01867"
    INDEX 01 02:57:64
  TRACK 135 AUDIO
    TITLE "0:"
    INDEX 01 02:59:17
  TRACK 136 AUDIO
    TITLE "9:cjc171_01868"
    INDEX 01 02:59:47
  TRACK 137 AUDIO
    TITLE "0:"
    INDEX 01 03:01:48
  TRACK 138 AUDIO
    TITLE "10:cjc171_01869"
    INDEX 01 03:02:28
  TRACK 139 AUDIO
    TITLE "0:"
    INDEX 01 03:04:28
  TRACK 140 AUDIO
    TITLE "8:cjc171_01870"
    INDEX 01 03:05:32
  TRACK 141 AUDIO
    TITLE "0:"
    INDEX 01 03:06:45
  TRACK 142 AUDIO
    TITLE "9:cjc171_01871"
    INDEX 01 03:06:74
  TRACK 143 AUDIO
    TITLE "0:"
    INDEX 01 03:08:63
  TRACK 144 AUDIO
    TITLE "10:cjc171_01872"
    INDEX 01 03:09:47
  TRACK 145 AUDIO
    TITLE "0:"
    INDEX 01 03:11:32
  TRACK 146 AUDIO
    TITLE "8:cjc171_01873"
    INDEX 01 03:12:40
  TRACK 147 AUDIO
    TITLE "0:"
    INDEX 01 03:13:51
  TRACK 148 AUDIO
    TITLE "9:cjc171_01874"
    INDEX 01 03:14:05
  TRACK 149 AUDIO
    TITLE "0:"
    INDEX 01 03:16:53
  TRACK 150 AUDIO
    TITLE "10:cjc171_01875"
    INDEX 01 03:17:31
  TRACK 151 AUDIO
    TITLE "0:"
    INDEX 01 03:20:02
  TRACK 152 AUDIO
    TITLE "8:cjc171_01876"
    INDEX 01 03:21:05
  TRACK 153 AUDIO
    TITLE "0:"
    INDEX 01 03:22:22
  TRACK 154 AUDIO
    TITLE "9:cjc171_01877"
    INDEX 01 03:22:52
  TRACK 155 AUDIO
    TITLE "0:"
    INDEX 01 03:24:68
  TRACK 156 AUDIO
    TITLE "10:cjc171_01878"
    INDEX 01 03:25:48
  TRACK 157 AUDIO
    TITLE "0:"
    INDEX 01 03:27:63
  TRACK 158 AUDIO
    TITLE "8:cjc171_01879"
    INDEX 01 03:28:68
  TRACK 159 AUDIO
    TITLE "0:"
    INDEX 01 03:30:16
  TRACK 160 AUDIO
    TITLE "9:cjc171_01880"
    INDEX 01 03:30:45
  TRACK 161 AUDIO
    TITLE "0:"
    INDEX 01 03:33:48
  TRACK 162 AUDIO
    TITLE "10:cjc171_01881"
    INDEX 01 03:34:26
  TRACK 163 AUDIO
    TITLE "0:"
    INDEX 01 03:37:28
  TRACK 164 AUDIO
    TITLE "8:cjc171_01882"
    INDEX 01 03:38:31
  TRACK 165 AUDIO
    TITLE "0:"
    INDEX 01 03:39:54
  TRACK 166 AUDIO
    TITLE "9:cjc171_01883"
    INDEX 01 03:40:07
  TRACK 167 AUDIO
    TITLE "0:"
    INDEX 01 03:41:65
  TRACK 168 AUDIO
    TITLE "10:cjc171_01884"
    INDEX 01 03:42:43
  TRACK 169 AUDIO
    TITLE "0:"
    INDEX 01 03:44:24
  TRACK 170 AUDIO
    TITLE "8:cjc171_01885"
    INDEX 01 03:45:27
  TRACK 171 AUDIO
    TITLE "0:"
    INDEX 01 03:46:46
  TRACK 172 AUDIO
    TITLE "9:cjc171_01886"
    INDEX 01 03:46:74
  TRACK 173 AUDIO
    TITLE "0:"
    INDEX 01 03:49:72
  TRACK 174 AUDIO
    TITLE "10:cjc171_01887"
    INDEX 01 03:50:54
  TRACK 175 AUDIO
    TITLE "0:"
    INDEX 01 03:53:52
  TRACK 176 AUDIO
    TITLE "8:cjc171_01888"
    INDEX 01 03:54:60
  TRACK 177 AUDIO
    TITLE "0:"
    INDEX 01 03:56:04
  TRACK 178 AUDIO
    TITLE "9:cjc171_01889"
    INDEX 01 03:56:35
  TRACK 179 AUDIO
    TITLE "0:"
    INDEX 01 03:59:08
  TRACK 180 AUDIO
    TITLE "10:cjc171_01890"
    INDEX 01 03:59:67
  TRACK 181 AUDIO
    TITLE "0:"
    INDEX 01 04:02:40
  TRACK 182 AUDIO
    TITLE "8:cjc171_01891"
    INDEX 01 04:03:43
  TRACK 183 AUDIO
    TITLE "0:"
    INDEX 01 04:04:56
  TRACK 184 AUDIO
    TITLE "9:cjc171_01892"
    INDEX 01 04:05:09
  TRACK 185 AUDIO
    TITLE "0:"
    INDEX 01 04:07:43
  TRACK 186 AUDIO
    TITLE "10:cjc171_01893"
    INDEX 01 04:08:15
  TRACK 187 AUDIO
    TITLE "0:"
    INDEX 01 04:10:51
  TRACK 188 AUDIO
    TITLE "8:cjc171_01894"
    INDEX 01 04:11:46
  TRACK 189 AUDIO
    TITLE "0:"
    INDEX 01 04:12:61
  TRACK 190 AUDIO
    TITLE "9:cjc171_01895"
    INDEX 01 04:13:10
  TRACK 191 AUDIO
    TITLE "0:"
    INDEX 01 04:14:66
  TRACK 192 AUDIO
    TITLE "10:cjc171_01896"
    INDEX 01 04:15:36
  TRACK 193 AUDIO
    TITLE "0:"
    INDEX 01 04:17:20
  TRACK 194 AUDIO
    TITLE "8:cjc171_01897"
    INDEX 01 04:18:11
  TRACK 195 AUDIO
    TITLE "0:"
    INDEX 01 04:19:34
  TRACK 196 AUDIO
    TITLE "9:cjc171_01898"
    INDEX 01 04:19:58
  TRACK 197 AUDIO
    TITLE "0:"
    INDEX 01 04:22:03
  TRACK 198 AUDIO
    TITLE "10:cjc171_01899"
    INDEX 01 04:22:46
  TRACK 199 AUDIO
    TITLE "0:"
    INDEX 01 04:24:67
  TRACK 200 AUDIO
    TITLE "8:cjc171_01900"
    INDEX 01 04:25:62
  TRACK 201 AUDIO
    TITLE "0:"
    INDEX 01 04:27:08
  TRACK 202 AUDIO
    TITLE "9:cjc171_01901"
    INDEX 01 04:27:32
  TRACK 203 AUDIO
    TITLE "0:"
    INDEX 01 04:29:46
  TRACK 204 AUDIO
    TITLE "10:cjc171_01902"
    INDEX 01 04:30:14
  TRACK 205 AUDIO
    TITLE "0:"
    INDEX 01 04:32:29
  TRACK 206 AUDIO
    TITLE "8:cjc171_01903"
    INDEX 01 04:33:22
  TRACK 207 AUDIO
    TITLE "0:"
    INDEX 01 04:34:47
  TRACK 208 AUDIO
    TITLE "9:cjc171_01904"
    INDEX 01 04:34:67
  TRACK 209 AUDIO
    TITLE "0:"
    INDEX 01 04:37:10
  TRACK 210 AUDIO
    TITLE "10:cjc171_01905"
    INDEX 01 04:37:57
  TRACK 211 AUDIO
    TITLE "0:"
    INDEX 01 04:39:74
  TRACK 212 AUDIO
    TITLE "8:cjc171_01906"
    INDEX 01 04:40:72
  TRACK 213 AUDIO
    TITLE "0:"
    INDEX 01 04:42:27
  TRACK 214 AUDIO
    TITLE "9:cjc171_01907"
    INDEX 01 04:42:53
  TRACK 215 AUDIO
    TITLE "0:"
    INDEX 01 04:44:61
  TRACK 216 AUDIO
    TITLE "10:cjc171_01908"
    INDEX 01 04:45:35
  TRACK 217 AUDIO
    TITLE "0:"
    INDEX 01 04:47:40
  TRACK 218 AUDIO
    TITLE "8:cjc171_01909"
    INDEX 01 04:48:42
  TRACK 219 AUDIO
    TITLE "0:"
    INDEX 01 04:49:65
  TRACK 220 AUDIO
    TITLE "9:cjc171_01910"
    INDEX 01 04:50:19
  TRACK 221 AUDIO
    TITLE "0:"
    INDEX 01 04:52:53
  TRACK 222 AUDIO
    TITLE "10:cjc171_01911"
    INDEX 01 04:53:27
  TRACK 223 AUDIO
    TITLE "0:"
    INDEX 01 04:55:59
  TRACK 224 AUDIO
    TITLE "8:cjc171_01912"
    INDEX 01 04:56:55
  TRACK 225 AUDIO
    TITLE "0:"
    INDEX 01 04:57:58
  TRACK 226 AUDIO
    TITLE "9:cjc171_01913"
    INDEX 01 04:58:07
  TRACK 227 AUDIO
    TITLE "0:"
    INDEX 01 04:59:65
  TRACK 228 AUDIO
    TITLE "10:cjc171_01914"
    INDEX 01 05:00:45
  TRACK 229 AUDIO
    TITLE "0:"
    INDEX 01 05:02:28
  TRACK 230 AUDIO
    TITLE "8:cjc171_01915"
    INDEX 01 05:03:31
  TRACK 231 AUDIO
    TITLE "0:"
    INDEX 01 05:04:64
  TRACK 232 AUDIO
    TITLE "9:cjc171_01916"
    INDEX 01 05:05:13
  TRACK 233 AUDIO
    TITLE "0:"
    INDEX 01 05:07:10
  TRACK 234 AUDIO
    TITLE "10:cjc171_01917"
    INDEX 01 05:07:57
  TRACK 235 AUDIO
    TITLE "0:"
    INDEX 01 05:09:57
  TRACK 236 AUDIO
    TITLE "8:cjc171_01918"
    INDEX 01 05:10:57
  TRACK 237 AUDIO
    TITLE "0:"
    INDEX 01 05:12:05
  TRACK 238 AUDIO
    TITLE "9:cjc171_01919"
    INDEX 01 05:12:24
  TRACK 239 AUDIO
    TITLE "0:"
    INDEX 01 05:14:29
  TRACK 240 AUDIO
    TITLE "10:cjc171_01920"
    INDEX 01 05:14:74
  TRACK 241 AUDIO
    TITLE "0:"
    INDEX 01 05:17:04
  TRACK 242 AUDIO
    TITLE "8:cjc171_01921"
    INDEX 01 05:18:06
  TRACK 243 AUDIO
    TITLE "0:"
    INDEX 01 05:19:36
  TRACK 244 AUDIO
    TITLE "9:cjc171_01922"
    INDEX 01 05:19:48
  TRACK 245 AUDIO
    TITLE "0:"
    INDEX 01 05:21:21
  TRACK 246 AUDIO
    TITLE "10:cjc171_01923"
    INDEX 01 05:21:67
  TRACK 247 AUDIO
    TITLE "0:"
    INDEX 01 05:23:38
  TRACK 248 AUDIO
    TITLE "8:cjc171_01924"
    INDEX 01 05:24:43
  TRACK 249 AUDIO
    TITLE "0:"
    INDEX 01 05:25:72
  TRACK 250 AUDIO
    TITLE "9:cjc171_01925"
    INDEX 01 05:26:29
  TRACK 251 AUDIO
    TITLE "0:"
    INDEX 01 05:28:55
  TRACK 252 AUDIO
    TITLE "10:cjc171_01926"
    INDEX 01 05:29:35
  TRACK 253 AUDIO
    TITLE "0:"
    INDEX 01 05:31:61
  TRACK 254 AUDIO
    TITLE "8:cjc171_01927"
    INDEX 01 05:32:66
  TRACK 255 AUDIO
    TITLE "0:"
    INDEX 01 05:34:10
  TRACK 256 AUDIO
    TITLE "9:cjc171_01928"
    INDEX 01 05:34:40
  TRACK 257 AUDIO
    TITLE "0:"
    INDEX 01 05:36:58
  TRACK 258 AUDIO
    TITLE "10:cjc171_01929"
    INDEX 01 05:37:38
  TRACK 259 AUDIO
    TITLE "0:"
    INDEX 01 05:39:55
  TRACK 260 AUDIO
    TITLE "8:cjc171_01930"
    INDEX 01 05:40:60
  TRACK 261 AUDIO
    TITLE "0:"
    INDEX 01 05:41:71
  TRACK 262 AUDIO
    TITLE "9:cjc171_01931"
    INDEX 01 05:42:26
  TRACK 263 AUDIO
    TITLE "0:"
    INDEX 01 05:44:19
  TRACK 264 AUDIO
    TITLE "10:cjc171_01932"
    INDEX 01 05:44:72
  TRACK 265 AUDIO
    TITLE "0:"
    INDEX 01 05:46:66
  TRACK 266 AUDIO
    TITLE "8:cjc171_01933"
    INDEX 01 05:47:70
  TRACK 267 AUDIO
    TITLE "0:"
    INDEX 01 05:49:30
  TRACK 268 AUDIO
    TITLE "9:cjc171_01934"
    INDEX 01 05:49:57
  TRACK 269 AUDIO
    TITLE "0:"
    INDEX 01 05:52:26
  TRACK 270 AUDIO
    TITLE "10:cjc171_01935"
    INDEX 01 05:53:04
  TRACK 271 AUDIO
    TITLE "0:"
    INDEX 01 05:55:46
  TRACK 272 AUDIO
    TITLE "8:cjc171_01936"
    INDEX 01 05:56:53
  TRACK 273 AUDIO
    TITLE "0:"
    INDEX 01 05:57:68
  TRACK 274 AUDIO
    TITLE "9:cjc171_01937"
    INDEX 01 05:58:23
  TRACK 275 AUDIO
    TITLE "0:"
    INDEX 01 06:00:35
  TRACK 276 AUDIO
    TITLE "10:cjc171_01938"
    INDEX 01 06:01:15
  TRACK 277 AUDIO
    TITLE "0:"
    INDEX 01 06:03:28
  TRACK 278 AUDIO
    TITLE "8:cjc171_01939"
    INDEX 01 06:04:31
  TRACK 279 AUDIO
    TITLE "0:"
    INDEX 01 06:05:72
  TRACK 280 AUDIO
    TITLE "9:cjc171_01940"
    INDEX 01 06:06:24
  TRACK 281 AUDIO
    TITLE "0:"
    INDEX 01 06:08:50
  TRACK 282 AUDIO
    TITLE "10:cjc171_01941"
    INDEX 01 06:09:30
  TRACK 283 AUDIO
    TITLE "0:"
    INDEX 01 06:11:57
  TRACK 284 AUDIO
    TITLE "8:cjc171_01942"
    INDEX 01 06:12:60
  TRACK 285 AUDIO
    TITLE "0:"
    INDEX 01 06:14:06
  TRACK 286 AUDIO
    TITLE "9:cjc171_01943"
    INDEX 01 06:14:37
  TRACK 287 AUDIO
    TITLE "0:"
    INDEX 01 06:16:36
  TRACK 288 AUDIO
    TITLE "10:cjc171_01944"
    INDEX 01 06:17:18
  TRACK 289 AUDIO
    TITLE "0:"
    INDEX 01 06:19:15
  TRACK 290 AUDIO
    TITLE "8:cjc171_01945"
    INDEX 01 06:20:22
  TRACK 291 AUDIO
    TITLE "0:"
    INDEX 01 06:21:65
  TRACK 292 AUDIO
    TITLE "9:cjc171_01946"
    INDEX 01 06:22:21
  TRACK 293 AUDIO
    TITLE "0:"
    INDEX 01 06:24:48
  TRACK 294 AUDIO
    TITLE "10:cjc171_01947"
    INDEX 01 06:25:29
  TRACK 295 AUDIO
    TITLE "0:"
    INDEX 01 06:27:56
  TRACK 296 AUDIO
    TITLE "8:cjc171_01948"
    INDEX 01 06:28:59
  TRACK 297 AUDIO
    TITLE "0:"
    INDEX 01 06:30:03
  TRACK 298 AUDIO
    TITLE "9:cjc171_01949"
    INDEX 01 06:30:32
  TRACK 299 AUDIO
    TITLE "0:"
    INDEX 01 06:32:14
  TRACK 300 AUDIO
    TITLE "10:cjc171_01950"
    INDEX 01 06:32:72
  TRACK 301 AUDIO
    TITLE "0:"
    INDEX 01 06:34:54
  TRACK 302 AUDIO
    TITLE "8:cjc171_01951"
    INDEX 01 06:35:57
  TRACK 303 AUDIO
    TITLE "0:"
    INDEX 01 06:37:01
  TRACK 304 AUDIO
    TITLE "9:cjc171_01952"
    INDEX 01 06:37:25
  TRACK 305 AUDIO
    TITLE "0:"
    INDEX 01 06:39:31
  TRACK 306 AUDIO
    TITLE "10:cjc171_01953"
    INDEX 01 06:40:01
  TRACK 307 AUDIO
    TITLE "0:"
    INDEX 01 06:42:10
  TRACK 308 AUDIO
    TITLE "8:cjc171_01954"
    INDEX 01 06:43:06
  TRACK 309 AUDIO
    TITLE "0:"
    INDEX 01 06:44:29
  TRACK 310 AUDIO
    TITLE "9:cjc171_01955"
    INDEX 01 06:44:50
  TRACK 311 AUDIO
    TITLE "0:"
    INDEX 01 06:47:27
  TRACK 312 AUDIO
    TITLE "10:cjc171_01956"
    INDEX 01 06:47:72
  TRACK 313 AUDIO
    TITLE "0:"
    INDEX 01 06:50:49
  TRACK 314 AUDIO
    TITLE "8:cjc171_01957"
    INDEX 01 06:51:44
  TRACK 315 AUDIO
    TITLE "0:"
    INDEX 01 06:52:67
  TRACK 316 AUDIO
    TITLE "9:cjc171_01958"
    INDEX 01 06:53:12
  TRACK 317 AUDIO
    TITLE "0:"
    INDEX 01 06:55:42
  TRACK 318 AUDIO
    TITLE "10:cjc171_01959"
    INDEX 01 06:56:16
  TRACK 319 AUDIO
    TITLE "0:"
    INDEX 01 06:58:46
  TRACK 320 AUDIO
    TITLE "8:cjc171_01960"
    INDEX 01 06:59:48
  TRACK 321 AUDIO
    TITLE "0:"
    INDEX 01 07:00:69
  TRACK 322 AUDIO
    TITLE "9:cjc171_01961"
    INDEX 01 07:01:11
  TRACK 323 AUDIO
    TITLE "0:"
    INDEX 01 07:03:48
  TRACK 324 AUDIO
    TITLE "10:cjc171_01962"
    INDEX 01 07:04:20
  TRACK 325 AUDIO
    TITLE "0:"
    INDEX 01 07:06:54
  TRACK 326 AUDIO
    TITLE "8:cjc171_01963"
    INDEX 01 07:07:47
  TRACK 327 AUDIO
    TITLE "0:"
    INDEX 01 07:08:68
  TRACK 328 AUDIO
    TITLE "9:cjc171_01964"
    INDEX 01 07:09:13
  TRACK 329 AUDIO
    TITLE "0:"
    INDEX 01 07:11:28
  TRACK 330 AUDIO
    TITLE "10:cjc171_01965"
    INDEX 01 07:11:71
  TRACK 331 AUDIO
    TITLE "0:"
    INDEX 01 07:14:08
  TRACK 332 AUDIO
    TITLE "8:cjc171_01966"
    INDEX 01 07:15:06
  TRACK 333 AUDIO
    TITLE "0:"
    INDEX 01 07:16:38
  TRACK 334 AUDIO
    TITLE "9:cjc171_01967"
    INDEX 01 07:16:58
  TRACK 335 AUDIO
    TITLE "0:"
    INDEX 01 07:18:57
  TRACK 336 AUDIO
    TITLE "10:cjc171_01968"
    INDEX 01 07:19:27
  TRACK 337 AUDIO
    TITLE "0:"
    INDEX 01 07:21:26
  TRACK 338 AUDIO
    TITLE "8:cjc171_01969"
    INDEX 01 07:22:21
  TRACK 339 AUDIO
    TITLE "0:"
    INDEX 01 07:23:31
  TRACK 340 AUDIO
    TITLE "9:cjc171_01970"
    INDEX 01 07:23:46
  TRACK 341 AUDIO
    TITLE "0:"
    INDEX 01 07:26:55
  TRACK 342 AUDIO
    TITLE "10:cjc171_01971"
    INDEX 01 07:27:19
  TRACK 343 AUDIO
    TITLE "0:"
    INDEX 01 07:30:27
  TRACK 344 AUDIO
    TITLE "8:cjc171_01972"
    INDEX 01 07:31:20
  TRACK 345 AUDIO
    TITLE "0:"
    INDEX 01 07:32:41
  TRACK 346 AUDIO
    TITLE "9:cjc171_01973"
    INDEX 01 07:32:63
  TRACK 347 AUDIO
    TITLE "0:"
    INDEX 01 07:35:40
  TRACK 348 AUDIO
    TITLE "10:cjc171_01974"
    INDEX 01 07:36:14
  TRACK 349 AUDIO
    TITLE "0:"
    INDEX 01 07:38:67
  TRACK 350 AUDIO
    TITLE "8:cjc171_01975"
    INDEX 01 07:40:00
  TRACK 351 AUDIO
    TITLE "0:"
    INDEX 01 07:41:17
  TRACK 352 AUDIO
    TITLE "9:cjc171_01976"
    INDEX 01 07:41:42
  TRACK 353 AUDIO
    TITLE "0:"
    INDEX 01 07:43:71
  TRACK 354 AUDIO
    TITLE "10:cjc171_01977"
    INDEX 01 07:44:39
  TRACK 355 AUDIO
    TITLE "0:"
    INDEX 01 07:46:67
  TRACK 356 AUDIO
    TITLE "8:cjc171_01978"
    INDEX 01 07:47:63
  TRACK 357 AUDIO
    TITLE "0:"
    INDEX 01 07:48:60
  TRACK 358 AUDIO
    TITLE "9:cjc171_01979"
    INDEX 01 07:49:05
  TRACK 359 AUDIO
    TITLE "0:"
    INDEX 01 07:50:67
  TRACK 360 AUDIO
    TITLE "10:cjc171_01980"
    INDEX 01 07:51:37
  TRACK 361 AUDIO
    TITLE "0:"
    INDEX 01 07:53:24
  TRACK 362 AUDIO
    TITLE "8:cjc171_01981"
    INDEX 01 07:54:27
  TRACK 363 AUDIO
    TITLE "0:"
    INDEX 01 07:55:42
  TRACK 364 AUDIO
    TITLE "9:cjc171_01982"
    INDEX 01 07:55:72
  TRACK 365 AUDIO
    TITLE "0:"
    INDEX 01 07:58:45
  TRACK 366 AUDIO
    TITLE "10:cjc171_01983"
    INDEX 01 07:59:25
  TRACK 367 AUDIO
    TITLE "0:"
    INDEX 01 08:01:72
  TRACK 368 AUDIO
    TITLE "8:cjc171_01984"
    INDEX 01 08:03:03
  TRACK 369 AUDIO
    TITLE "0:"
    INDEX 01 08:04:10
  TRACK 370 AUDIO
    TITLE "9:cjc171_01985"
    INDEX 01 08:04:39
  TRACK 371 AUDIO
    TITLE "0:"
    INDEX 01 08:06:34
  TRACK 372 AUDIO
    TITLE "10:cjc171_01986"
    INDEX 01 08:07:14
  TRACK 373 AUDIO
    TITLE "0:"
    INDEX 01 08:09:09
  TRACK 374 AUDIO
    TITLE "8:cjc171_01987"
    INDEX 01 08:10:13
  TRACK 375 AUDIO
    TITLE "0:"
    INDEX 01 08:11:45
  TRACK 376 AUDIO
    TITLE "9:cjc171_01988"
    INDEX 01 08:12:00
  TRACK 377 AUDIO
    TITLE "0:"
    INDEX 01 08:13:68
  TRACK 378 AUDIO
    TITLE "10:cjc171_01989"
    INDEX 01 08:14:48
  TRACK 379 AUDIO
    TITLE "0:"
    INDEX 01 08:16:41
  TRACK 380 AUDIO
    TITLE "8:cjc171_01990"
    INDEX 01 08:17:44
  TRACK 381 AUDIO
    TITLE "0:"
    INDEX 01 08:18:67
  TRACK 382 AUDIO
    TITLE "9:cjc171_01991"
    INDEX 01 08:19:21
  TRACK 383 AUDIO
    TITLE "0:"
    INDEX 01 08:21:42
  TRACK 384 AUDIO
    TITLE "10:cjc171_01992"
    INDEX 01 08:22:22
  TRACK 385 AUDIO
    TITLE "0:"
    INDEX 01 08:24:42
  TRACK 386 AUDIO
    TITLE "8:cjc171_01993"
    INDEX 01 08:25:47
  TRACK 387 AUDIO
    TITLE "0:"
    INDEX 01 08:26:68
  TRACK 388 AUDIO
    TITLE "9:cjc171_01994"
    INDEX 01 08:27:23
  TRACK 389 AUDIO
    TITLE "0:"
    INDEX 01 08:29:08
  TRACK 390 AUDIO
    TITLE "10:cjc171_01995"
    INDEX 01 08:29:63
  TRACK 391 AUDIO
    TITLE "0:"
    INDEX 01 08:31:48
  TRACK 392 AUDIO
    TITLE "8:cjc171_01996"
    INDEX 01 08:32:51
  TRACK 393 AUDIO
    TITLE "0:"
    INDEX 01 08:33:63
  TRACK 394 AUDIO
    TITLE "9:cjc171_01997"
    INDEX 01 08:34:17
  TRACK 395 AUDIO
    TITLE "0:"
    INDEX 01 08:36:10
  TRACK 396 AUDIO
    TITLE "10:cjc171_01998"
    INDEX 01 08:36:63
  TRACK 397 AUDIO
    TITLE "0:"
    INDEX 01 08:38:54
  TRACK 398 AUDIO
    TITLE "8:cjc171_01999"
    INDEX 01 08:39:59
  TRACK 399 AUDIO
    TITLE "0:"
    INDEX 01 08:41:03
  TRACK 400 AUDIO
    TITLE "9:cjc171_02000"
    INDEX 01 08:41:35
  TRACK 401 AUDIO
    TITLE "0:"
    INDEX 01 08:43:28
  TRACK 402 AUDIO
    TITLE "10:cjc171_02001"
    INDEX 01 08:44:08
  TRACK 403 AUDIO
    TITLE "0:"
    INDEX 01 08:46:03
  TRACK 404 AUDIO
    TITLE "8:cjc171_02002"
    INDEX 01 08:47:08
  TRACK 405 AUDIO
    TITLE "0:"
    INDEX 01 08:48:19
  TRACK 406 AUDIO
    TITLE "9:cjc171_02003"
    INDEX 01 08:48:48
  TRACK 407 AUDIO
    TITLE "0:"
    INDEX 01 08:50:55
  TRACK 408 AUDIO
    TITLE "10:cjc171_02004"
    INDEX 01 08:51:35
  TRACK 409 AUDIO
    TITLE "0:"
    INDEX 01 08:53:42
  TRACK 410 AUDIO
    TITLE "8:cjc171_02005"
    INDEX 01 08:54:41
  TRACK 411 AUDIO
    TITLE "0:"
    INDEX 01 08:55:54
  TRACK 412 AUDIO
    TITLE "9:cjc171_02006"
    INDEX 01 08:56:09
  TRACK 413 AUDIO
    TITLE "0:"
    INDEX 01 08:58:41
  TRACK 414 AUDIO
    TITLE "10:cjc171_02007"
    INDEX 01 08:59:23
  TRACK 415 AUDIO
    TITLE "0:"
    INDEX 01 09:01:53
  TRACK 416 AUDIO
    TITLE "8:cjc171_02008"
    INDEX 01 09:02:60
  TRACK 417 AUDIO
    TITLE "0:"
    INDEX 01 09:04:01
  TRACK 418 AUDIO
    TITLE "9:cjc171_02009"
    INDEX 01 09:04:28
  TRACK 419 AUDIO
    TITLE "0:"
    INDEX 01 09:06:13
  TRACK 420 AUDIO
    TITLE "10:cjc171_02010"
    INDEX 01 09:06:70
  TRACK 421 AUDIO
    TITLE "0:"
    INDEX 01 09:08:57
  TRACK 422 AUDIO
    TITLE "8:cjc171_02011"
    INDEX 01 09:09:62
  TRACK 423 AUDIO
    TITLE "0:"
    INDEX 01 09:11:18
  TRACK 424 AUDIO
    TITLE "9:cjc171_02012"
    INDEX 01 09:11:40
  TRACK 425 AUDIO
    TITLE "0:"
    INDEX 01 09:13:45
  TRACK 426 AUDIO
    TITLE "10:cjc171_02013"
    INDEX 01 09:14:15
  TRACK 427 AUDIO
    TITLE "0:"
    INDEX 01 09:16:23
  TRACK 428 AUDIO
    TITLE "8:cjc171_02014"
    INDEX 01 09:17:17
  TRACK 429 AUDIO
    TITLE "0:"
    INDEX 01 09:18:40
  TRACK 430 AUDIO
    TITLE "9:cjc171_02015"
    INDEX 01 09:18:65
  TRACK 431 AUDIO
    TITLE "0:"
    INDEX 01 09:21:03
  TRACK 432 AUDIO
    TITLE "10:cjc171_02016"
    INDEX 01 09:21:48
  TRACK 433 AUDIO
    TITLE "0:"
    INDEX 01 09:23:59
  TRACK 434 AUDIO
    TITLE "8:cjc171_02017"
    INDEX 01 09:24:54
  TRACK 435 AUDIO
    TITLE "0:"
    INDEX 01 09:26:12
  TRACK 436 AUDIO
    TITLE "9:cjc171_02018"
    INDEX 01 09:26:37
  TRACK 437 AUDIO
    TITLE "0:"
    INDEX 01 09:29:00
  TRACK 438 AUDIO
    TITLE "10:cjc171_02019"
    INDEX 01 09:29:51
  TRACK 439 AUDIO
    TITLE "0:"
    INDEX 01 09:32:12
  TRACK 440 AUDIO
    TITLE "8:cjc171_02020"
    INDEX 01 09:33:12
  TRACK 441 AUDIO
    TITLE "0:"
    INDEX 01 09:34:27
  TRACK 442 AUDIO
    TITLE "9:cjc171_02021"
    INDEX 01 09:34:51
  TRACK 443 AUDIO
    TITLE "0:"
    INDEX 01 09:36:59
  TRACK 444 AUDIO
    TITLE "10:cjc171_02022"
    INDEX 01 09:37:35
  TRACK 445 AUDIO
    TITLE "0:"
    INDEX 01 09:39:44
  TRACK 446 AUDIO
    TITLE "8:cjc171_02023"
    INDEX 01 09:40:45
  TRACK 447 AUDIO
    TITLE "0:"
    INDEX 01 09:41:64
  TRACK 448 AUDIO
    TITLE "9:cjc171_02024"
    INDEX 01 09:42:13
  TRACK 449 AUDIO
    TITLE "0:"
    INDEX 01 09:44:73
  TRACK 450 AUDIO
    TITLE "10:cjc171_02025"
    INDEX 01 09:45:45
  TRACK 451 AUDIO
    TITLE "0:"
    INDEX 01 09:48:31
  TRACK 452 AUDIO
    TITLE "8:cjc171_02026"
    INDEX 01 09:49:25
  TRACK 453 AUDIO
    TITLE "0:"
    INDEX 01 09:50:40
  TRACK 454 AUDIO
    TITLE "9:cjc171_02027"
    INDEX 01 09:50:59
  TRACK 455 AUDIO
    TITLE "0:"
    INDEX 01 09:52:70
  TRACK 456 AUDIO
    TITLE "10:cjc171_02028"
    INDEX 01 09:53:40
  TRACK 457 AUDIO
    TITLE "0:"
    INDEX 01 09:55:51
  TRACK 458 AUDIO
    TITLE "8:cjc171_02029"
    INDEX 01 09:56:48
  TRACK 459 AUDIO
    TITLE "0:"
    INDEX 01 09:57:54
  TRACK 460 AUDIO
    TITLE "9:cjc171_02030"
    INDEX 01 09:58:02
  TRACK 461 AUDIO
    TITLE "0:"
    INDEX 01 09:59:74
  TRACK 462 AUDIO
    TITLE "10:cjc171_02031"
    INDEX 01 10:00:46
  TRACK 463 AUDIO
    TITLE "0:"
    INDEX 01 10:02:47
  TRACK 464 AUDIO
    TITLE "8:cjc171_02032"
    INDEX 01 10:03:46
  TRACK 465 AUDIO
    TITLE "0:"
    INDEX 01 10:05:12
  TRACK 466 AUDIO
    TITLE "9:cjc171_02033"
    INDEX 01 10:05:34
  TRACK 467 AUDIO
    TITLE "0:"
    INDEX 01 10:08:16
  TRACK 468 AUDIO
    TITLE "10:cjc171_02034"
    INDEX 01 10:08:61
  TRACK 469 AUDIO
    TITLE "0:"
    INDEX 01 10:11:46
  TRACK 470 AUDIO
    TITLE "8:cjc171_02035"
    INDEX 01 10:12:43
  TRACK 471 AUDIO
    TITLE "0:"
    INDEX 01 10:13:49
  TRACK 472 AUDIO
    TITLE "9:cjc171_02036"
    INDEX 01 10:13:72
  TRACK 473 AUDIO
    TITLE "0:"
    INDEX 01 10:16:43
  TRACK 474 AUDIO
    TITLE "10:cjc171_02037"
    INDEX 01 10:17:17
  TRACK 475 AUDIO
    TITLE "0:"
    INDEX 01 10:19:63
  TRACK 476 AUDIO
    TITLE "8:cjc171_02038"
    INDEX 01 10:20:60
  TRACK 477 AUDIO
    TITLE "0:"
    INDEX 01 10:22:07
  TRACK 478 AUDIO
    TITLE "9:cjc171_02039"
    INDEX 01 10:22:22
  TRACK 479 AUDIO
    TITLE "0:"
    INDEX 01 10:24:11
  TRACK 480 AUDIO
    TITLE "10:cjc171_02040"
    INDEX 01 10:24:56
  TRACK 481 AUDIO
    TITLE "0:"
    INDEX 01 10:26:47
  TRACK 482 AUDIO
    TITLE "8:cjc171_02041"
    INDEX 01 10:27:49
  TRACK 483 AUDIO
    TITLE "0:"
    INDEX 01 10:28:68
  TRACK 484 AUDIO
    TITLE "9:cjc171_02042"
    INDEX 01 10:29:22
  TRACK 485 AUDIO
    TITLE "0:"
    INDEX 01 10:31:43
  TRACK 486 AUDIO
    TITLE "10:cjc171_02043"
    INDEX 01 10:32:25
  TRACK 487 AUDIO
    TITLE "0:"
    INDEX 01 10:34:45
  TRACK 488 AUDIO
    TITLE "8:cjc171_02044"
    INDEX 01 10:35:52
  TRACK 489 AUDIO
    TITLE "0:"
    INDEX 01 10:37:02
  TRACK 490 AUDIO
    TITLE "9:cjc171_02045"
    INDEX 01 10:37:34
  TRACK 491 AUDIO
    TITLE "0:"
    INDEX 01 10:39:72
  TRACK 492 AUDIO
    TITLE "10:cjc171_02046"
    INDEX 01 10:40:53
  TRACK 493 AUDIO
    TITLE "0:"
    INDEX 01 10:43:16
  TRACK 494 AUDIO
    TITLE "8:cjc171_02047"
    INDEX 01 10:44:22
  TRACK 495 AUDIO
    TITLE "0:"
    INDEX 01 10:45:47
  TRACK 496 AUDIO
    TITLE "9:cjc171_02048"
    INDEX 01 10:46:03
  TRACK 497 AUDIO
    TITLE "0:"
    INDEX 01 10:48:51
  TRACK 498 AUDIO
    TITLE "10:cjc171_02049"
    INDEX 01 10:49:31
  TRACK 499 AUDIO
    TITLE "0:"
    INDEX 01 10:52:02
  TRACK 500 AUDIO
    TITLE "8:cjc171_02050"
    INDEX 01 10:53:07
  TRACK 501 AUDIO
    TITLE "0:"
    INDEX 01 10:54:34
  TRACK 502 AUDIO
    TITLE "9:cjc171_02051"
    INDEX 01 10:54:65
  TRACK 503 AUDIO
    TITLE "0:"
    INDEX 01 10:57:19
  TRACK 504 AUDIO
    TITLE "10:cjc171_02052"
    INDEX 01 10:57:71
  TRACK 505 AUDIO
    TITLE "0:"
    INDEX 01 11:00:25
  TRACK 506 AUDIO
    TITLE "8:cjc171_02053"
    INDEX 01 11:01:30
  TRACK 507 AUDIO
    TITLE "0:"
    INDEX 01 11:02:51
  TRACK 508 AUDIO
    TITLE "9:cjc171_02054"
    INDEX 01 11:03:03
  TRACK 509 AUDIO
    TITLE "0:"
    INDEX 01 11:05:06
  TRACK 510 AUDIO
    TITLE "10:cjc171_02055"
    INDEX 01 11:05:59
  TRACK 511 AUDIO
    TITLE "0:"
    INDEX 01 11:07:66
  TRACK 512 AUDIO
    TITLE "8:cjc171_02056"
    INDEX 01 11:08:67
  TRACK 513 AUDIO
    TITLE "0:"
    INDEX 01 11:10:07
  TRACK 514 AUDIO
    TITLE "9:cjc171_02057"
    INDEX 01 11:10:29
  TRACK 515 AUDIO
    TITLE "0:"
    INDEX 01 11:12:14
  TRACK 516 AUDIO
    TITLE "10:cjc171_02058"
    INDEX 01 11:12:63
  TRACK 517 AUDIO
    TITLE "0:"
    INDEX 01 11:14:46
  TRACK 518 AUDIO
    TITLE "8:cjc171_02059"
    INDEX 01 11:15:52
  TRACK 519 AUDIO
    TITLE "0:"
    INDEX 01 11:16:53
  TRACK 520 AUDIO
    TITLE "9:cjc171_02060"
    INDEX 01 11:17:10
  TRACK 521 AUDIO
    TITLE "0:"
    INDEX 01 11:18:54
  TRACK 522 AUDIO
    TITLE "10:cjc171_02061"
    INDEX 01 11:19:32
  TRACK 523 AUDIO
    TITLE "0:"
    INDEX 01 11:21:03
  TRACK 524 AUDIO
    TITLE "8:cjc171_02062"
    INDEX 01 11:22:07
  TRACK 525 AUDIO
    TITLE "0:"
    INDEX 01 11:23:39
  TRACK 526 AUDIO
    TITLE "9:cjc171_02063"
    INDEX 01 11:23:71
  TRACK 527 AUDIO
    TITLE "0:"
    INDEX 01 11:25:64
  TRACK 528 AUDIO
    TITLE "10:cjc171_02064"
    INDEX 01 11:26:42
  TRACK 529 AUDIO
    TITLE "0:"
    INDEX 01 11:28:39
  TRACK 530 AUDIO
    TITLE "8:cjc171_02065"
    INDEX 01 11:29:42
  TRACK 531 AUDIO
    TITLE "0:"
    INDEX 01 11:30:53
  TRACK 532 AUDIO
    TITLE "9:cjc171_02066"
    INDEX 01 11:31:08
  TRACK 533 AUDIO
    TITLE "0:"
    INDEX 01 11:33:26
  TRACK 534 AUDIO
    TITLE "10:cjc171_02067"
    INDEX 01 11:34:10
  TRACK 535 AUDIO
    TITLE "0:"
    INDEX 01 11:36:26
  TRACK 536 AUDIO
    TITLE "8:cjc171_02068"
    INDEX 01 11:37:32
  TRACK 537 AUDIO
    TITLE "0:"
    INDEX 01 11:38:45
  TRACK 538 AUDIO
    TITLE "9:cjc171_02069"
    INDEX 01 11:38:74
  TRACK 539 AUDIO
    TITLE "0:"
    INDEX 01 11:41:30
  TRACK 540 AUDIO
    TITLE "10:cjc171_02070"
    INDEX 01 11:42:07
  TRACK 541 AUDIO
    TITLE "0:"
    INDEX 01 11:44:36
  TRACK 542 AUDIO
    TITLE "8:cjc171_02071"
    INDEX 01 11:45:37
  TRACK 543 AUDIO
    TITLE "0:"
    INDEX 01 11:46:50
  TRACK 544 AUDIO
    TITLE "9:cjc171_02072"
    INDEX 01 11:46:72
  TRACK 545 AUDIO
    TITLE "0:"
    INDEX 01 11:49:53
  TRACK 546 AUDIO
    TITLE "10:cjc171_02073"
    INDEX 01 11:50:19
  TRACK 547 AUDIO
    TITLE "0:"
    INDEX 01 11:52:74
  TRACK 548 AUDIO
    TITLE "8:cjc171_02074"
    INDEX 01 11:53:68
  TRACK 549 AUDIO
    TITLE "0:"
    INDEX 01 11:55:12
  TRACK 550 AUDIO
    TITLE "9:cjc171_02075"
    INDEX 01 11:55:36
  TRACK 551 AUDIO
    TITLE "0:"
    INDEX 01 11:58:08
  TRACK 552 AUDIO
    TITLE "10:cjc171_02076"
    INDEX 01 11:58:59
  TRACK 553 AUDIO
    TITLE "0:"
    INDEX 01 12:01:34
  TRACK 554 AUDIO
    TITLE "8:cjc171_02077"
    INDEX 01 12:02:36
  TRACK 555 AUDIO
    TITLE "0:"
    INDEX 01 12:03:47
  TRACK 556 AUDIO
    TITLE "9:cjc171_02078"
    INDEX 01 12:03:70
  TRACK 557 AUDIO
    TITLE "0:"
    INDEX 01 12:06:31
  TRACK 558 AUDIO
    TITLE "10:cjc171_02079"
    INDEX 01 12:07:05
  TRACK 559 AUDIO
    TITLE "0:"
    INDEX 01 12:09:42
  TRACK 560 AUDIO
    TITLE "8:cjc171_02080"
    INDEX 01 12:10:39
  TRACK 561 AUDIO
    TITLE "0:"
    INDEX 01 12:11:48
  TRACK 562 AUDIO
    TITLE "9:cjc171_02081"
    INDEX 01 12:11:70
  TRACK 563 AUDIO
    TITLE "0:"
    INDEX 01 12:13:59
  TRACK 564 AUDIO
    TITLE "10:cjc171_02082"
    INDEX 01 12:14:33
  TRACK 565 AUDIO
    TITLE "0:"
    INDEX 01 12:16:20
  TRACK 566 AUDIO
    TITLE "8:cjc171_02083"
    INDEX 01 12:17:21
  TRACK 567 AUDIO
    TITLE "0:"
    INDEX 01 12:18:31
  TRACK 568 AUDIO
    TITLE "9:cjc171_02084"
    INDEX 01 12:18:54
  TRACK 569 AUDIO
    TITLE "0:"
    INDEX 01 12:21:11
  TRACK 570 AUDIO
    TITLE "10:cjc171_02085"
    INDEX 01 12:21:62
  TRACK 571 AUDIO
    TITLE "0:"
    INDEX 01 12:24:18
  TRACK 572 AUDIO
    TITLE "8:cjc171_02086"
    INDEX 01 12:25:19
  TRACK 573 AUDIO
    TITLE "0:"
    INDEX 01 12:26:46
  TRACK 574 AUDIO
    TITLE "9:cjc171_02087"
    INDEX 01 12:26:67
  TRACK 575 AUDIO
    TITLE "0:"
    INDEX 01 12:28:62
  TRACK 576 AUDIO
    TITLE "10:cjc171_02088"
    INDEX 01 12:29:33
  TRACK 577 AUDIO
    TITLE "0:"
    INDEX 01 12:31:28
  TRACK 578 AUDIO
    TITLE "8:cjc171_02089"
    INDEX 01 12:32:23
  TRACK 579 AUDIO
    TITLE "0:"
    INDEX 01 12:33:40
  TRACK 580 AUDIO
    TITLE "9:cjc171_02090"
    INDEX 01 12:33:62
  TRACK 581 AUDIO
    TITLE "0:"
    INDEX 01 12:35:41
  TRACK 582 AUDIO
    TITLE "10:cjc171_02091"
    INDEX 01 12:36:11
  TRACK 583 AUDIO
    TITLE "0:"
    INDEX 01 12:37:65
  TRACK 584 AUDIO
    TITLE "8:cjc171_02092"
    INDEX 01 12:38:63
  TRACK 585 AUDIO
    TITLE "0:"
    INDEX 01 12:40:01
  TRACK 586 AUDIO
    TITLE "9:cjc171_02093"
    INDEX 01 12:40:25
  TRACK 587 AUDIO
    TITLE "0:"
    INDEX 01 12:42:21
  TRACK 588 AUDIO
    TITLE "10:cjc171_02094"
    INDEX 01 12:42:70
  TRACK 589 AUDIO
    TITLE "0:"
    INDEX 01 12:44:69
  TRACK 590 AUDIO
    TITLE "8:cjc171_02095"
    INDEX 01 12:45:69
  TRACK 591 AUDIO
    TITLE "0:"
    INDEX 01 12:47:05
  TRACK 592 AUDIO
    TITLE "9:cjc171_02096"
    INDEX 01 12:47:27
  TRACK 593 AUDIO
    TITLE "0:"
    INDEX 01 12:49:45
  TRACK 594 AUDIO
    TITLE "10:cjc171_02097"
    INDEX 01 12:50:15
  TRACK 595 AUDIO
    TITLE "0:"
    INDEX 01 12:52:32
  TRACK 596 AUDIO
    TITLE "8:cjc171_02098"
    INDEX 01 12:53:27
  TRACK 597 AUDIO
    TITLE "0:"
    INDEX 01 12:54:60
  TRACK 598 AUDIO
    TITLE "9:cjc171_02099"
    INDEX 01 12:55:12
  TRACK 599 AUDIO
    TITLE "0:"
    INDEX 01 12:57:39
  TRACK 600 AUDIO
    TITLE "10:cjc171_02100"
    INDEX 01 12:58:15
  TRACK 601 AUDIO
    TITLE "0:"
    INDEX 01 13:00:43
